<!-- 128x128 占位符图标 -->
<svg width="128" height="128" viewBox="0 0 128 128" xmlns="http://www.w3.org/2000/svg">
  <rect width="128" height="128" rx="24" fill="#3B82F6"/>
  <path d="M 44 32 L 44 96 L 92 64 Z" fill="white" opacity="0.9"/>
  <circle cx="64" cy="64" r="48" fill="none" stroke="white" stroke-width="8" opacity="0.3"/>
  
  <!-- 左侧胶片孔 -->
  <rect x="8" y="8" width="16" height="112" rx="3" fill="#10B981" opacity="0.2"/>
  <circle cx="16" cy="16" r="3" fill="white" opacity="0.6"/>
  <circle cx="16" cy="32" r="3" fill="white" opacity="0.6"/>
  <circle cx="16" cy="48" r="3" fill="white" opacity="0.6"/>
  <circle cx="16" cy="64" r="3" fill="white" opacity="0.6"/>
  <circle cx="16" cy="80" r="3" fill="white" opacity="0.6"/>
  <circle cx="16" cy="96" r="3" fill="white" opacity="0.6"/>
  <circle cx="16" cy="112" r="3" fill="white" opacity="0.6"/>
  
  <!-- 右侧胶片孔 -->
  <rect x="104" y="8" width="16" height="112" rx="3" fill="#10B981" opacity="0.2"/>
  <circle cx="112" cy="16" r="3" fill="white" opacity="0.6"/>
  <circle cx="112" cy="32" r="3" fill="white" opacity="0.6"/>
  <circle cx="112" cy="48" r="3" fill="white" opacity="0.6"/>
  <circle cx="112" cy="64" r="3" fill="white" opacity="0.6"/>
  <circle cx="112" cy="80" r="3" fill="white" opacity="0.6"/>
  <circle cx="112" cy="96" r="3" fill="white" opacity="0.6"/>
  <circle cx="112" cy="112" r="3" fill="white" opacity="0.6"/>
</svg>